<svg xmlns="http://www.w3.org/2000/svg" width="1280" height="720" viewBox="0 0 1280 720">
  <rect width="1280" height="720" fill="#ffffff"/>
  <rect x="0" y="0" width="1280" height="3" fill="#3b82f6"/>
  <rect x="260" y="0" width="1" height="720" fill="#e2e8f0"/>
  <rect x="0" y="0" width="260" height="720" fill="#f8fafc"/>
  <circle cx="80" cy="60" r="24" fill="#3b82f6" opacity="0.2"/>
  <rect x="30" y="110" width="200" height="16" rx="4" fill="#e2e8f0"/>
  <rect x="30" y="136" width="180" height="16" rx="4" fill="#e2e8f0"/>
  <rect x="30" y="162" width="160" height="16" rx="4" fill="#e2e8f0"/>
  <rect x="30" y="188" width="190" height="16" rx="4" fill="#e2e8f0"/>
  <text x="300" y="60" font-family="system-ui,sans-serif" font-size="32" font-weight="bold" fill="#1e293b">Increa Reader</text>
  <text x="300" y="90" font-family="system-ui,sans-serif" font-size="16" fill="#64748b">你的个人知识库，快速访问文件与笔记</text>
  <rect x="300" y="120" width="200" height="60" rx="12" fill="#f8fafc" stroke="#e2e8f0" stroke-width="1"/>
  <rect x="300" y="196" width="200" height="60" rx="12" fill="#f8fafc" stroke="#e2e8f0" stroke-width="1"/>
  <rect x="516" y="120" width="200" height="60" rx="12" fill="#f8fafc" stroke="#e2e8f0" stroke-width="1"/>
  <rect x="516" y="196" width="200" height="60" rx="12" fill="#f8fafc" stroke="#e2e8f0" stroke-width="1"/>
  <rect x="732" y="120" width="200" height="60" rx="12" fill="#f8fafc" stroke="#e2e8f0" stroke-width="1"/>
  <rect x="732" y="196" width="200" height="60" rx="12" fill="#f8fafc" stroke="#e2e8f0" stroke-width="1"/>
  <text x="350" y="155" font-family="system-ui,sans-serif" font-size="14" fill="#1e293b" font-weight="600">搜索文件内容</text>
  <text x="566" y="155" font-family="system-ui,sans-serif" font-size="14" fill="#1e293b" font-weight="600">命令面板</text>
  <text x="792" y="155" font-family="system-ui,sans-serif" font-size="14" fill="#1e293b" font-weight="600">知识图谱</text>
  <rect x="300" y="290" width="640" height="120" rx="12" fill="#f8fafc" stroke="#e2e8f0" stroke-width="1"/>
  <text x="320" y="322" font-family="system-ui,sans-serif" font-size="14" fill="#64748b" font-weight="600">继续阅读</text>
  <rect x="320" y="340" width="600" height="24" rx="6" fill="#e2e8f0"/>
  <rect x="320" y="340" width="240" height="24" rx="6" fill="#818cf8"/>
  <rect x="320" y="374" width="600" height="24" rx="6" fill="#e2e8f0"/>
  <rect x="320" y="374" width="180" height="24" rx="6" fill="#818cf8"/>
</svg>
