<svg xmlns="http://www.w3.org/2000/svg" width="1280" height="720" viewBox="0 0 1280 720">
  <rect width="1280" height="720" fill="#ffffff"/>
  <rect x="0" y="0" width="1280" height="3" fill="#3b82f6"/>
  <rect x="260" y="0" width="1" height="720" fill="#e2e8f0"/>
  <rect x="0" y="0" width="260" height="720" fill="#f8fafc"/>
  <circle cx="80" cy="60" r="24" fill="#3b82f6" opacity="0.2"/>
  <rect x="30" y="110" width="200" height="16" rx="4" fill="#e2e8f0"/>
  <rect x="30" y="136" width="180" height="16" rx="4" fill="#e2e8f0"/>
  <rect x="30" y="162" width="160" height="16" rx="4" fill="#e2e8f0"/>
  <rect x="30" y="188" width="190" height="16" rx="4" fill="#818cf8" opacity="0.3"/>
  <text x="300" y="42" font-family="system-ui,sans-serif" font-size="14" fill="#64748b">📄 paper.pdf — 第 3 页 / 共 24 页</text>
  <!-- PDF page mock -->
  <rect x="300" y="60" width="520" height="640" rx="4" fill="#fafafa" stroke="#e2e8f0" stroke-width="1"/>
  <rect x="320" y="80" width="480" height="4" rx="2" fill="#1e293b"/>
  <rect x="320" y="96" width="460" height="4" rx="2" fill="#64748b"/>
  <rect x="320" y="112" width="470" height="4" rx="2" fill="#64748b"/>
  <rect x="320" y="128" width="200" height="4" rx="2" fill="#64748b"/>
  <text x="320" y="160" font-family="system-ui,sans-serif" font-size="14" fill="#2563eb" font-weight="600">2. Methods</text>
  <rect x="320" y="176" width="480" height="4" rx="2" fill="#1e293b"/>
  <rect x="320" y="192" width="460" height="4" rx="2" fill="#64748b"/>
  <rect x="320" y="208" width="470" height="4" rx="2" fill="#64748b"/>
  <rect x="320" y="224" width="280" height="4" rx="2" fill="#64748b"/>
  <rect x="320" y="252" width="480" height="4" rx="2" fill="#64748b"/>
  <rect x="320" y="268" width="460" height="4" rx="2" fill="#64748b"/>
  <rect x="320" y="284" width="470" height="4" rx="2" fill="#64748b"/>
  <!-- Figure placeholder -->
  <rect x="370" y="310" width="380" height="200" rx="8" fill="#eff6ff" stroke="#bfdbfe" stroke-width="1"/>
  <text x="480" y="410" font-family="system-ui,sans-serif" font-size="14" fill="#94a3b8">Figure 2.1</text>
  <rect x="320" y="530" width="480" height="4" rx="2" fill="#64748b"/>
  <rect x="320" y="546" width="460" height="4" rx="2" fill="#64748b"/>
  <rect x="320" y="562" width="470" height="4" rx="2" fill="#64748b"/>
  <rect x="320" y="578" width="200" height="4" rx="2" fill="#64748b"/>
  <!-- Sidebar: PDF tools -->
  <rect x="840" y="60" width="180" height="520" rx="8" fill="#f8fafc" stroke="#e2e8f0" stroke-width="1"/>
  <text x="860" y="90" font-family="system-ui,sans-serif" font-size="13" fill="#1e293b" font-weight="600">视图模式</text>
  <rect x="860" y="104" width="140" height="32" rx="6" fill="#3b82f6" opacity="0.1"/>
  <text x="880" y="124" font-family="system-ui,sans-serif" font-size="12" fill="#3b82f6" font-weight="600">SVG 渲染</text>
  <rect x="860" y="144" width="140" height="32" rx="6" fill="#ffffff"/>
  <text x="880" y="164" font-family="system-ui,sans-serif" font-size="12" fill="#64748b">Markdown</text>
  <text x="860" y="210" font-family="system-ui,sans-serif" font-size="13" fill="#1e293b" font-weight="600">页面导航</text>
  <rect x="860" y="224" width="36" height="36" rx="8" fill="#eff6ff"/>
  <text x="873" y="248" font-family="system-ui,sans-serif" font-size="16" fill="#3b82f6">←</text>
  <rect x="904" y="224" width="96" height="36" rx="8" fill="#ffffff" stroke="#e2e8f0" stroke-width="1"/>
  <text x="930" y="248" font-family="system-ui,sans-serif" font-size="12" fill="#1e293b">3 / 24</text>
  <rect x="1006" y="224" width="36" height="36" rx="8" fill="#eff6ff"/>
  <text x="1019" y="248" font-family="system-ui,sans-serif" font-size="16" fill="#3b82f6">→</text>
  <text x="860" y="300" font-family="system-ui,sans-serif" font-size="13" fill="#1e293b" font-weight="600">搜索</text>
  <rect x="860" y="314" width="140" height="32" rx="6" fill="#ffffff" stroke="#e2e8f0" stroke-width="1"/>
  <text x="878" y="334" font-family="system-ui,sans-serif" font-size="12" fill="#94a3b8">搜索文本...</text>
  <!-- Zoom controls -->
  <text x="860" y="390" font-family="system-ui,sans-serif" font-size="13" fill="#1e293b" font-weight="600">缩放</text>
  <rect x="860" y="404" width="36" height="36" rx="8" fill="#eff6ff"/>
  <text x="872" y="428" font-family="system-ui,sans-serif" font-size="18" fill="#3b82f6">−</text>
  <rect x="904" y="404" width="56" height="36" rx="8" fill="#ffffff" stroke="#e2e8f0" stroke-width="1"/>
  <text x="918" y="428" font-family="system-ui,sans-serif" font-size="12" fill="#1e293b">100%</text>
  <rect x="968" y="404" width="36" height="36" rx="8" fill="#eff6ff"/>
  <text x="980" y="428" font-family="system-ui,sans-serif" font-size="18" fill="#3b82f6">+</text>
</svg>